<?xml version="1.0" encoding="UTF-8"?>
<svg id="Layer_1" data-name="Layer 1" xmlns="http://www.w3.org/2000/svg" viewBox="0 0 82.49 60.47">
  <defs>
    <style>
      .cls-1 {
        fill: #95c7c2;
      }
    </style>
  </defs>
  <g id="t8Y57N">
    <g>
      <path class="cls-1" d="M64.06,13.11s.49.16.29.29c-6.81,5.31-13.1,11.31-19.9,16.62-3.03,2.36-3.22,2.36-6.25,0-6.51-5.08-13.33-10.95-19.54-16.42-.12-.11-.26-.21-.43-.21-.04-.05.19-.28.21-.28h45.62Z"/>
      <path class="cls-1" d="M17.94,47.36l18.55-15.59c1.84,1.36,3.42,2.89,5.9,2.3,1.34-.32,2.49-1.3,3.5-2.19l.43-.05,18.38,15.25c.04.06-.19.28-.21.28H17.94Z"/>
      <path class="cls-1" d="M16.23,45.37V15.17l.28-.14c6.04,4.99,12.02,10.06,18.05,15.07l-18.33,15.28Z"/>
      <polygon class="cls-1" points="66.26 15.1 66.26 45.23 48.07 30.09 66.26 15.1"/>
    </g>
  </g>
</svg>