<?xml version="1.0" encoding="UTF-8"?>
<svg id="Layer_1" data-name="Layer 1" xmlns="http://www.w3.org/2000/svg" viewBox="0 0 82.49 60.47">
  <defs>
    <style>
      .cls-1 {
        fill: #95c7c2;
      }
    </style>
  </defs>
  <path class="cls-1" d="M60.55,13.11H22.29c-.12.17-.23.35-.34.52v33.55c.04.06.09.12.12.18h38.47V13.11ZM34.49,43.02h-5.13v-16.65h5.13v16.65ZM31.93,23.89c-1.63,0-2.96-1.32-2.96-2.95s1.32-2.95,2.96-2.95,2.96,1.32,2.96,2.95-1.32,2.95-2.96,2.95ZM44.83,30.84c-1.58.38-2.33,1.72-2.44,3.27v8.91s-5.02,0-5.02,0v-16.65h4.74v2.38c.41-.49.85-.97,1.38-1.35,2.59-1.87,6.31-1.83,8.66.42.88.84,1.72,2.81,1.8,4.02v11.18s-5.04,0-5.04,0l.03-9.21c-.05-2.31-1.92-3.49-4.1-2.96Z"/>
</svg>