<?xml version="1.0" encoding="UTF-8"?>
<svg id="Layer_1" xmlns="http://www.w3.org/2000/svg" xmlns:xlink="http://www.w3.org/1999/xlink" version="1.1" viewBox="0 0 216 216">
  <!-- Generator: Adobe Illustrator 29.3.1, SVG Export Plug-In . SVG Version: 2.1.0 Build 151)  -->
  <defs>
    <style>
      .st0 {
        fill: none;
      }

      .st1 {
        fill: #302e8b;
      }

      .st2 {
        fill: #f391b9;
      }

      .st3 {
        clip-path: url(#clippath);
      }
    </style>
    <clipPath id="clippath">
      <rect class="st0" x="85.78" y="80.03" width="44.43" height="46.6"/>
    </clipPath>
  </defs>
  <g class="st3">
    <path class="st2" d="M90.93,107.08c1.54.23,3-.37,4.42-.88,3.03-1.08,8.37-3.85,9.68-6.93,1.18-2.76-2.44-7.48-5.16-7.85-4.09-.56-6.18.76-7.87,4.38-1.59,3.42-2.06,7.65-1.08,11.28M104.88,88.36c3.32,2.42,5.01,6.2,4.45,10.42-.91,6.81-11.44,11.27-17.28,12.66.34,1.78,1.43,3.47,2.45,4.94,1.44,2.06,3.15,4.15,5.56,4.91,2.07.66,2.86.78,4.88-.02,2.13-.84,3.59-3.19,5.26-.56.86,1.35,1.25,2.55-.07,3.7-4.6,4-12.66,2.16-16.61-2.04-6.76-7.2-10.11-19.34-5.84-28.61,2.94-6.38,11.22-9.74,17.19-5.39"/>
    <path class="st1" d="M121.54,101.32c-4.21,3.94-8.07,8.53-7.64,14.61.09,1.3-.15,3.5,1.74,5.45,1.59,1.64,3.29,1.86,4.26,1.86,6.4.01,6-6.13,5.35-10.76-.51-3.59-1.96-6.96-3.1-10.38-.03-.09-.01-.19.04-.26.59-.81,2.52-2.73,3.31-2.37,1.85.83,4.08,10.16,4.33,12.3.98,8.44-.08,14.18-9.67,14.68-8.87.46-11.64-8.3-9.5-15.65,1.8-6.17,6.14-11.21,11.14-15.04,1.09-.83,3.95-3.57,4.96-2.77.79.63,1.55,2.37,1.37,3.19-.07.32-3.13,2.16-3.74,2.64-.9.71-2,1.71-2.84,2.51"/>
    <path class="st2" d="M121.54,101.32c-4.21,3.94-8.07,8.53-7.64,14.61.09,1.3-.15,3.5,1.74,5.45,1.59,1.64,3.29,1.86,4.26,1.86,6.4.01,6-6.13,5.35-10.76-.51-3.59-1.96-6.96-3.1-10.38-.03-.09-.01-.19.04-.26.59-.81,2.52-2.73,3.31-2.37,1.85.83,4.08,10.16,4.33,12.3.98,8.44-.08,14.18-9.67,14.68-8.87.46-11.64-8.3-9.5-15.65,1.8-6.17,6.14-11.21,11.14-15.04,1.09-.83,3.95-3.57,4.96-2.77.79.63,1.55,2.37,1.37,3.19-.07.32-3.13,2.16-3.74,2.64-.9.71-2,1.71-2.84,2.51Z"/>
    <path class="st2" d="M119.53,86.06c1.09.46,2.78,5.95,3.54,7.54.07.15.05.33-.06.46-.57.7-2.57,2.12-3.1,2.11-.36,0-.37-.14-.51-.39-1.39-2.32-2.25-5.38-3.78-7.73-.11-.16-.1-.37.03-.52.68-.76,3.31-1.71,3.88-1.48"/>
    <path class="st2" d="M115.66,80.07c3.27-.53,4.96,4.11,2.18,5.83-4.11,2.54-6.69-5.1-2.18-5.83"/>
  </g>
</svg>