<?xml version="1.0" encoding="UTF-8"?>
<svg id="Layer_1" xmlns="http://www.w3.org/2000/svg" version="1.1" viewBox="0 0 234.54 148.48">
  <!-- Generator: Adobe Illustrator 29.3.1, SVG Export Plug-In . SVG Version: 2.1.0 Build 151)  -->
  <defs>
    <style>
      .st0 {
        fill: #fad4e4;
      }

      .st1 {
        fill: #f492b9;
      }
    </style>
  </defs>
  <path class="st1" d="M3.04,33.23h170.32c26.08,0,47.25,21.17,47.25,47.25h0c0,26.08-21.17,47.25-47.25,47.25H3.04C1.36,127.74,0,126.38,0,124.7V36.28C0,34.6,1.36,33.23,3.04,33.23Z"/>
  <path class="st0" d="M3.04,25.45h170.32c26.08,0,47.25,21.17,47.25,47.25h0c0,26.08-21.17,47.25-47.25,47.25H3.04C1.36,119.96,0,118.6,0,116.92V28.5C0,26.82,1.36,25.45,3.04,25.45Z"/>
</svg>